<?xml version="1.0" encoding="UTF-8"?>
<!DOCTYPE svg PUBLIC "-//W3C//DTD SVG 1.1//EN" "http://www.w3.org/Graphics/SVG/1.1/DTD/svg11.dtd">
<!-- Creator: CorelDRAW X5 -->
<svg xmlns="http://www.w3.org/2000/svg" xml:space="preserve" width="60px" height="50px" style="shape-rendering:geometricPrecision; text-rendering:geometricPrecision; image-rendering:optimizeQuality; fill-rule:evenodd; clip-rule:evenodd"
viewBox="0 0 60 50.0004"
 xmlns:xlink="http://www.w3.org/1999/xlink">
 <defs>
  <style type="text/css">
   <![CDATA[
    .str0 {stroke:#201E1E;stroke-width:0.900035}
    .str2 {stroke:#D2D3D5;stroke-width:0.900035}
    .str1 {stroke:#FEFEFE;stroke-width:0.900035}
    .fil1 {fill:none}
    .fil0 {fill:#201E1E}
    .fil4 {fill:#BDBFC1}
    .fil3 {fill:#D2D3D5}
    .fil2 {fill:#FEFEFE}
    .fnt0 {font-weight:normal;font-size:12.3761;font-family:'Arial'}
   ]]>
  </style>
 </defs>
 <g id="Слой_x0020_1">
  <metadata id="CorelCorpID_0Corel-Layer"/>
  <g id="_340106856">
   <polygon id="_340106976" class="fil0 str0" points="38.3295,-21.126 39.8047,-24.5584 41.2823,-27.9897 38.3295,-27.9897 35.3754,-27.9897 36.8507,-24.5584 "/>
   <path id="_340106904" class="fil1 str0" d="M25.1384 -14.7986c-7.28651,0 -13.1911,-5.90693 -13.1911,-13.1911 0,-7.28415 5.90456,-13.1911 13.1911,-13.1911 7.28415,0 13.1911,5.90693 13.1911,13.1911"/>
  </g>
  <g id="_340105080">
   <line id="_340105896" class="fil1 str1" x1="10.2264" y1="22.6084" x2="10.2264" y2= "36.0558" />
   <line id="_340105800" class="fil1 str1" x1="36.814" y1="8.84917" x2="36.814" y2= "36.0558" />
   <line id="_340105704" class="fil1 str1" x1="50.0441" y1="2.00323" x2="50.0441" y2= "36.0558" />
   <line id="_340105608" class="fil1 str1" x1="10.2264" y1="22.6084" x2="50.0441" y2= "2.00323" />
   <polygon id="_340105512" class="fil2 str1" points="10.2276,43.3529 11.7961,39.7043 13.3671,36.0546 10.2276,36.0546 7.08689,36.0546 8.65782,39.7043 "/>
   <polygon id="_340105416" class="fil2 str1" points="36.8117,43.3529 38.3826,39.7043 39.9547,36.0546 36.8117,36.0546 33.6746,36.0546 35.2455,39.7043 "/>
   <polygon id="_340105320" class="fil2 str1" points="50.0453,43.3529 51.6162,39.7043 53.1824,36.0546 50.0453,36.0546 46.907,36.0546 48.4743,39.7043 "/>
   <line id="_340105200" class="fil1 str1" x1="22.9474" y1="16.0258" x2="22.9474" y2= "36.0558" />
   <polygon id="_340105128" class="fil2 str1" points="22.9462,43.3529 24.5183,39.7043 26.0857,36.0546 22.9462,36.0546 19.809,36.0546 21.3776,39.7043 "/>
  </g>
  <g id="_340105464">
   <line id="_340104984" class="fil1 str2" x1="88.8047" y1="-8.92476" x2="111.44" y2= "-8.92476" />
   <path id="_340104888" class="fil1 str2" d="M101.156 -8.9224c0,-6.55538 -5.31399,-11.8694 -11.8694,-11.8694 -0.0425214,0 -0.0862239,0 -0.128745,0.00118115"/>
   <text x="98.6685" y="-18.8866" id="_340104744" class="fil3 fnt0">α</text>
   <line id="_340103616" class="fil1 str0" x1="88.8212" y1="-44.0521" x2="88.8212" y2= "-14.8317" />
   <polygon id="_340103640" class="fil0 str0" points="88.8212,-9.75629 90.3957,-13.4179 91.9702,-17.0782 88.8212,-17.0782 85.6723,-17.0782 87.2444,-13.4179 "/>
  </g>
  <rect class="fil4" x="188.289" y="-13.1249" width="50.0016" height="50.0016"/>
  <g id="_340105368">
   <line id="_340106760" class="fil1 str0" x1="102.695" y1="15.3561" x2="102.695" y2= "36.1869" />
   <line id="_340106664" class="fil1 str0" x1="128.732" y1="15.3561" x2="128.732" y2= "36.1869" />
   <line id="_340106568" class="fil1 str0" x1="141.689" y1="15.3561" x2="141.689" y2= "36.1869" />
   <line id="_340106472" class="fil1 str0" x1="102.695" y1="15.3561" x2="141.689" y2= "15.3561" />
   <polygon id="_340106376" class="fil0 str0" points="128.732,43.334 130.27,39.7587 131.807,36.188 128.732,36.188 125.659,36.188 127.196,39.7587 "/>
   <polygon id="_340106280" class="fil0 str0" points="141.689,43.334 143.227,39.7587 144.764,36.188 141.689,36.188 138.614,36.188 140.15,39.7587 "/>
   <line id="_340106184" class="fil1 str0" x1="115.153" y1="15.3561" x2="115.153" y2= "36.1869" />
   <polygon id="_340106088" class="fil0 str0" points="115.153,43.334 116.689,39.7587 118.227,36.188 115.153,36.188 112.079,36.188 113.617,39.7587 "/>
   <polygon id="_340105992" class="fil0 str0" points="102.695,43.334 104.232,39.7587 105.771,36.188 102.695,36.188 99.6205,36.188 101.157,39.7587 "/>
  </g>
 </g>
</svg>
