<?xml version="1.0" encoding="UTF-8"?>
<!DOCTYPE svg PUBLIC "-//W3C//DTD SVG 1.1//EN" "http://www.w3.org/Graphics/SVG/1.1/DTD/svg11.dtd">
<!-- Creator: CorelDRAW X5 -->
<svg xmlns="http://www.w3.org/2000/svg" xml:space="preserve" width="70px" height="50px" style="shape-rendering:geometricPrecision; text-rendering:geometricPrecision; image-rendering:optimizeQuality; fill-rule:evenodd; clip-rule:evenodd"
viewBox="0 0 700 500"
 xmlns:xlink="http://www.w3.org/1999/xlink">
 <defs>
  <style type="text/css">
   <![CDATA[
    .str0 {stroke:#FEFEFE;stroke-width:8.50395}
    .str1 {stroke:#2B2A29;stroke-width:5.6693;stroke-dasharray:28.346508 17.007905}
    .fil0 {fill:none}
    .fil1 {fill:#FEFEFE}
   ]]>
  </style>
 </defs>
 <g id="Слой_x0020_1">
  <metadata id="CorelCorpID_0Corel-Layer"/>
  <path id="_340106904" class="fil0 str0" d="M128 350c-59,0 -107,-48 -107,-107 0,-59 48,-107 107,-107 59,0 107,48 107,107"/>
  <line id="_340106760" class="fil0 str0" x1="530" y1="94" x2="607" y2= "94" />
  <line id="_340106472" class="fil0 str0" x1="530" y1="94" x2="530" y2= "416" />
  <line id="_340106184" class="fil0 str0" x1="530" y1="416" x2="453" y2= "416" />
  <polygon id="_340105992" class="fil1 str0" points="674,94 641,109 607,124 607,94 607,63 641,78 "/>
  <line class="fil0 str1" x1="474" y1="12" x2="232" y2= "490" />
  <polygon id="_340105992_0" class="fil1 str0" points="386,416 420,431 453,447 453,416 453,386 420,401 "/>
  <polygon id="_340105992_1" class="fil1 str0" points="235,309 250,276 264,243 235,243 207,243 221,276 "/>
 </g>
</svg>
