<?xml version="1.0" encoding="UTF-8"?>
<!DOCTYPE svg PUBLIC "-//W3C//DTD SVG 1.1//EN" "http://www.w3.org/Graphics/SVG/1.1/DTD/svg11.dtd">
<!-- Creator: CorelDRAW X5 -->
<svg xmlns="http://www.w3.org/2000/svg" xml:space="preserve" width="60px" height="50px" style="shape-rendering:geometricPrecision; text-rendering:geometricPrecision; image-rendering:optimizeQuality; fill-rule:evenodd; clip-rule:evenodd"
viewBox="0 0 60 50.0004"
 xmlns:xlink="http://www.w3.org/1999/xlink">
 <defs>
  <style type="text/css">
   <![CDATA[
    .str0 {stroke:#201E1E;stroke-width:0.900035}
    .str1 {stroke:#D2D3D5;stroke-width:0.900035}
    .str2 {stroke:#FEFEFE;stroke-width:0.900035}
    .fil1 {fill:none}
    .fil0 {fill:#201E1E}
    .fil3 {fill:#BDBFC1}
    .fil2 {fill:#D2D3D5}
    .fil4 {fill:#FEFEFE}
    .fnt0 {font-weight:normal;font-size:12.3761;font-family:'Arial'}
   ]]>
  </style>
 </defs>
 <g id="Слой_x0020_1">
  <metadata id="CorelCorpID_0Corel-Layer"/>
  <g id="_340106856">
   <polygon id="_340106976" class="fil0 str0" points="38.3295,-21.126 39.8047,-24.5584 41.2823,-27.9897 38.3295,-27.9897 35.3754,-27.9897 36.8507,-24.5584 "/>
   <path id="_340106904" class="fil1 str0" d="M25.1384 -14.7986c-7.28651,0 -13.1911,-5.90693 -13.1911,-13.1911 0,-7.28415 5.90456,-13.1911 13.1911,-13.1911 7.28415,0 13.1911,5.90693 13.1911,13.1911"/>
  </g>
  <g id="_340105080">
   <line id="_340105896" class="fil1 str0" x1="-46.0447" y1="22.6084" x2="-46.0447" y2= "36.0558" />
   <line id="_340105800" class="fil1 str0" x1="-19.4571" y1="8.84917" x2="-19.4571" y2= "36.0558" />
   <line id="_340105704" class="fil1 str0" x1="-6.22702" y1="2.00323" x2="-6.22702" y2= "36.0558" />
   <line id="_340105608" class="fil1 str0" x1="-46.0447" y1="22.6084" x2="-6.22702" y2= "2.00323" />
   <polygon id="_340105512" class="fil0 str0" points="-46.0435,43.3529 -44.475,39.7043 -42.9041,36.0546 -46.0435,36.0546 -49.1842,36.0546 -47.6133,39.7043 "/>
   <polygon id="_340105416" class="fil0 str0" points="-19.4594,43.3529 -17.8885,39.7043 -16.3164,36.0546 -19.4594,36.0546 -22.5966,36.0546 -21.0256,39.7043 "/>
   <polygon id="_340105320" class="fil0 str0" points="-6.22584,43.3529 -4.65491,39.7043 -3.0887,36.0546 -6.22584,36.0546 -9.36415,36.0546 -7.79676,39.7043 "/>
   <line id="_340105200" class="fil1 str0" x1="-33.3238" y1="16.0258" x2="-33.3238" y2= "36.0558" />
   <polygon id="_340105128" class="fil0 str0" points="-33.3249,43.3529 -31.7528,39.7043 -30.1854,36.0546 -33.3249,36.0546 -36.4621,36.0546 -34.8935,39.7043 "/>
  </g>
  <g id="_340105464">
   <line id="_340104984" class="fil1 str1" x1="88.8047" y1="-8.92476" x2="111.44" y2= "-8.92476" />
   <path id="_340104888" class="fil1 str1" d="M101.156 -8.9224c0,-6.55538 -5.31399,-11.8694 -11.8694,-11.8694 -0.0425214,0 -0.0862239,0 -0.128745,0.00118115"/>
   <text x="98.6685" y="-18.8866" id="_340104744" class="fil2 fnt0">α</text>
   <line id="_340103616" class="fil1 str0" x1="88.8212" y1="-44.0521" x2="88.8212" y2= "-14.8317" />
   <polygon id="_340103640" class="fil0 str0" points="88.8212,-9.75629 90.3957,-13.4179 91.9702,-17.0782 88.8212,-17.0782 85.6723,-17.0782 87.2444,-13.4179 "/>
  </g>
  <rect class="fil3" x="188.289" y="-13.1249" width="50.0016" height="50.0016"/>
  <g id="_340105368">
   <line id="_340106760" class="fil1 str2" x1="10.5028" y1="15.3561" x2="10.5028" y2= "36.1869" />
   <line id="_340106664" class="fil1 str2" x1="36.54" y1="15.3561" x2="36.54" y2= "36.1869" />
   <line id="_340106568" class="fil1 str2" x1="49.4972" y1="15.3561" x2="49.4972" y2= "36.1869" />
   <line id="_340106472" class="fil1 str2" x1="10.5028" y1="15.3561" x2="49.4972" y2= "15.3561" />
   <polygon id="_340106376" class="fil4 str2" points="36.54,43.334 38.0779,39.7587 39.6146,36.188 36.54,36.188 33.4667,36.188 35.0033,39.7587 "/>
   <polygon id="_340106280" class="fil4 str2" points="49.4972,43.334 51.0351,39.7587 52.5718,36.188 49.4972,36.188 46.4215,36.188 47.9582,39.7587 "/>
   <line id="_340106184" class="fil1 str2" x1="22.9604" y1="15.3561" x2="22.9604" y2= "36.1869" />
   <polygon id="_340106088" class="fil4 str2" points="22.9604,43.334 24.497,39.7587 26.0349,36.188 22.9604,36.188 19.887,36.188 21.4249,39.7587 "/>
   <polygon id="_340105992" class="fil4 str2" points="10.5028,43.334 12.0395,39.7587 13.5785,36.188 10.5028,36.188 7.42825,36.188 8.96492,39.7587 "/>
  </g>
 </g>
</svg>
