<?xml version="1.0" encoding="UTF-8"?>
<!DOCTYPE svg PUBLIC "-//W3C//DTD SVG 1.1//EN" "http://www.w3.org/Graphics/SVG/1.1/DTD/svg11.dtd">
<!-- Creator: CorelDRAW X5 -->
<svg xmlns="http://www.w3.org/2000/svg" xml:space="preserve" width="60px" height="50px" style="shape-rendering:geometricPrecision; text-rendering:geometricPrecision; image-rendering:optimizeQuality; fill-rule:evenodd; clip-rule:evenodd"
viewBox="0 0 60 50.0004"
 xmlns:xlink="http://www.w3.org/1999/xlink">
 <defs>
  <style type="text/css">
   <![CDATA[
    .str0 {stroke:#373435;stroke-width:0.900035}
    .str2 {stroke:#201E1E;stroke-width:0.900035}
    .str4 {stroke:#373435;stroke-width:1.45872}
    .str3 {stroke:#FEFEFE;stroke-width:1.45872}
    .str1 {stroke:#373435;stroke-width:2.3623}
    .fil1 {fill:none}
    .fil4 {fill:none;fill-rule:nonzero}
    .fil2 {fill:#373435}
    .fil6 {fill:#201E1E}
    .fil0 {fill:#96989A}
    .fil5 {fill:#BDBFC1}
    .fil3 {fill:#373435;fill-rule:nonzero}
   ]]>
  </style>
 </defs>
 <g id="Слой_x0020_1">
  <metadata id="CorelCorpID_0Corel-Layer"/>
  <rect class="fil0" x="-147.195" y="3.75015" width="60" height="50.0016"/>
  <g id="_340105080">
   <line id="_340105896" class="fil1 str0" x1="-71.965" y1="22.6084" x2="-71.965" y2= "36.0558" />
   <line id="_340105800" class="fil1 str0" x1="-45.3774" y1="8.84917" x2="-45.3774" y2= "36.0558" />
   <line id="_340105704" class="fil1 str0" x1="-32.1473" y1="2.00323" x2="-32.1473" y2= "36.0558" />
   <line id="_340105608" class="fil1 str0" x1="-71.965" y1="22.6084" x2="-32.1473" y2= "2.00323" />
   <polygon id="_340105512" class="fil2 str0" points="-71.9639,43.3529 -70.3953,39.7043 -68.8244,36.0546 -71.9639,36.0546 -75.1045,36.0546 -73.5336,39.7043 "/>
   <polygon id="_340105416" class="fil2 str0" points="-45.3797,43.3529 -43.8088,39.7043 -42.2367,36.0546 -45.3797,36.0546 -48.5169,36.0546 -46.9459,39.7043 "/>
   <polygon id="_340105320" class="fil2 str0" points="-32.1461,43.3529 -30.5752,39.7043 -29.009,36.0546 -32.1461,36.0546 -35.2845,36.0546 -33.7171,39.7043 "/>
   <line id="_340105200" class="fil1 str0" x1="-59.2441" y1="16.0258" x2="-59.2441" y2= "36.0558" />
   <polygon id="_340105128" class="fil2 str0" points="-59.2452,43.3529 -57.6731,39.7043 -56.1058,36.0546 -59.2452,36.0546 -62.3824,36.0546 -60.8138,39.7043 "/>
  </g>
  <line class="fil1 str0" x1="-182.401" y1="43.4757" x2="-156.27" y2= "43.4757" />
  <path class="fil1 str0" d="M-168.142 43.4793c0,-7.5688 -6.13489,-13.7037 -13.7025,-13.7037 -0.0496083,0 -0.0992165,0 -0.148825,0.00118115"/>
  <path class="fil3" d="M-164.575 24.5691l1.28273 0c-0.325997,1.02169 -0.626009,2.25718 -0.900035,3.70172 0.327178,1.79535 0.62719,3.03201 0.900035,3.70526l-1.24729 0c-0.199614,-0.464192 -0.351982,-0.916572 -0.454742,-1.35242 -0.386236,1.01224 -1.19296,1.51896 -2.41899,1.51896 -0.930745,0 -1.67841,-0.347258 -2.24773,-1.04532 -0.566951,-0.696878 -0.850427,-1.64534 -0.850427,-2.84066 0,-1.22603 0.285838,-2.17568 0.855152,-2.84775 0.569314,-0.673255 1.32407,-1.0087 2.26426,-1.0087 0.581125,0 1.05477,0.118115 1.4221,0.351982 0.366156,0.23623 0.708689,0.592937 1.02524,1.0713 0.0342533,-0.161817 0.154731,-0.581125 0.3697,-1.25438zm-2.61034 0.871688c-0.600024,0 -1.07366,0.239773 -1.42092,0.725225 -0.34962,0.484271 -0.523249,1.18115 -0.523249,2.09063 0,0.890586 0.16418,1.58628 0.494901,2.093 0.330722,0.507894 0.790189,0.761841 1.38076,0.761841 0.576401,0 1.05713,-0.249222 1.44573,-0.75003 0.385055,-0.499626 0.577582,-1.21895 0.577582,-2.15914 0,-0.911847 -0.180716,-1.60046 -0.539785,-2.06465 -0.362613,-0.464192 -0.831529,-0.696878 -1.41502,-0.696878z"/>
  <path id="1" class="fil4 str1" d="M-164.575 24.5691l1.28273 0c-0.325997,1.02169 -0.626009,2.25718 -0.900035,3.70172 0.327178,1.79535 0.62719,3.03201 0.900035,3.70526l-1.24729 0c-0.199614,-0.464192 -0.351982,-0.916572 -0.454742,-1.35242 -0.386236,1.01224 -1.19296,1.51896 -2.41899,1.51896 -0.930745,0 -1.67841,-0.347258 -2.24773,-1.04532 -0.566951,-0.696878 -0.850427,-1.64534 -0.850427,-2.84066 0,-1.22603 0.285838,-2.17568 0.855152,-2.84775 0.569314,-0.673255 1.32407,-1.0087 2.26426,-1.0087 0.581125,0 1.05477,0.118115 1.4221,0.351982 0.366156,0.23623 0.708689,0.592937 1.02524,1.0713 0.0342533,-0.161817 0.154731,-0.581125 0.3697,-1.25438zm-2.61034 0.871688c-0.600024,0 -1.07366,0.239773 -1.42092,0.725225 -0.34962,0.484271 -0.523249,1.18115 -0.523249,2.09063 0,0.890586 0.16418,1.58628 0.494901,2.093 0.330722,0.507894 0.790189,0.761841 1.38076,0.761841 0.576401,0 1.05713,-0.249222 1.44573,-0.75003 0.385055,-0.499626 0.577582,-1.21895 0.577582,-2.15914 0,-0.911847 -0.180716,-1.60046 -0.539785,-2.06465 -0.362613,-0.464192 -0.831529,-0.696878 -1.41502,-0.696878z"/>
  <line class="fil1 str0" x1="-182.382" y1="2.92334" x2="-182.382" y2= "36.657" />
  <polygon class="fil2 str0" points="-182.381,42.5166 -180.565,38.2893 -178.747,34.0632 -182.381,34.0632 -186.017,34.0632 -184.203,38.2893 "/>
  <rect class="fil5" x="188.289" y="-13.1249" width="50.0016" height="50.0016"/>
  <g id="_340105368">
   <line id="_340106760" class="fil1 str2" x1="102.695" y1="15.3561" x2="102.695" y2= "36.1869" />
   <line id="_340106664" class="fil1 str2" x1="128.732" y1="15.3561" x2="128.732" y2= "36.1869" />
   <line id="_340106568" class="fil1 str2" x1="141.689" y1="15.3561" x2="141.689" y2= "36.1869" />
   <line id="_340106472" class="fil1 str2" x1="102.695" y1="15.3561" x2="141.689" y2= "15.3561" />
   <polygon id="_340106376" class="fil6 str2" points="128.732,43.334 130.27,39.7587 131.807,36.188 128.732,36.188 125.659,36.188 127.196,39.7587 "/>
   <polygon id="_340106280" class="fil6 str2" points="141.689,43.334 143.227,39.7587 144.764,36.188 141.689,36.188 138.614,36.188 140.15,39.7587 "/>
   <line id="_340106184" class="fil1 str2" x1="115.153" y1="15.3561" x2="115.153" y2= "36.1869" />
   <polygon id="_340106088" class="fil6 str2" points="115.153,43.334 116.689,39.7587 118.227,36.188 115.153,36.188 112.079,36.188 113.617,39.7587 "/>
   <polygon id="_340105992" class="fil6 str2" points="102.695,43.334 104.232,39.7587 105.771,36.188 102.695,36.188 99.6205,36.188 101.157,39.7587 "/>
  </g>
  <line class="fil1 str3" x1="32.3682" y1="43.5679" x2="32.3682" y2= "6.13489" />
  <line class="fil1 str3" x1="32.3682" y1="38.144" x2="27.6306" y2= "42.571" />
  <line class="fil1 str3" x1="32.3682" y1="17.5153" x2="27.6306" y2= "21.9422" />
  <line class="fil1 str3" x1="32.3682" y1="31.4658" x2="27.6306" y2= "35.8928" />
  <line class="fil1 str3" x1="32.3682" y1="25.2341" x2="27.6306" y2= "29.661" />
  <line class="fil1 str3" x1="32.3682" y1="10.8937" x2="27.6306" y2= "15.3207" />
  <g id="_335264000">
   <line id="_340104528" class="fil1 str4" x1="266.966" y1="17.2672" x2="260.381" y2= "27.6353" />
   <line id="_422167912" class="fil1 str4" x1="273.191" y1="17.2672" x2="279.776" y2= "27.6353" />
   <circle id="_340103856" class="fil1 str4" cx="270.078" cy="13.5637" r="4.83855"/>
   <circle id="_340106232" class="fil1 str4" cx="282.371" cy="31.7208" r="4.83855"/>
   <circle id="_335263064" class="fil1 str4" cx="257.787" cy="31.7208" r="4.83855"/>
   <line id="_335274080" class="fil1 str4" x1="248.606" y1="36.5589" x2="292.442" y2= "36.5589" />
   <line id="_334797200" class="fil1 str4" x1="254.957" y1="36.5589" x2="249.773" y2= "42.1068" />
   <line id="_335261096" class="fil1 str4" x1="279.115" y1="36.5589" x2="273.931" y2= "42.1068" />
   <line id="_335274104" class="fil1 str4" x1="262.778" y1="36.5589" x2="257.594" y2= "42.1068" />
   <line id="_424064984" class="fil1 str4" x1="270.076" y1="36.5589" x2="264.892" y2= "42.1068" />
   <line id="_424066328" class="fil1 str4" x1="286.869" y1="36.5589" x2="281.685" y2= "42.1068" />
  </g>
  <g id="_424064552">
   <line id="_424064960" class="fil1 str4" x1="121.769" y1="-35.0659" x2="121.782" y2= "-26.0372" />
   <circle id="_424064528" class="fil1 str4" cx="121.769" cy="-40.2077" r="5.14256"/>
   <circle id="_424065896" class="fil1 str4" cx="121.781" cy="-20.9098" r="5.14256"/>
   <line id="_424063592" class="fil1 str4" x1="97.8039" y1="-15.7683" x2="145.757" y2= "-15.7683" />
   <line id="_340105464" class="fil1 str4" x1="106.377" y1="-15.7672" x2="100.867" y2= "-9.87086" />
   <line id="_424063568" class="fil1 str4" x1="132.052" y1="-15.7672" x2="126.544" y2= "-9.87086" />
   <line id="_424065824" class="fil1 str4" x1="114.69" y1="-15.7672" x2="109.179" y2= "-9.87086" />
   <line id="_424061960" class="fil1 str4" x1="122.446" y1="-15.7672" x2="116.936" y2= "-9.87086" />
   <line id="_424062128" class="fil1 str4" x1="140.294" y1="-15.7672" x2="134.784" y2= "-9.87086" />
  </g>
 </g>
</svg>
